<?xml version="1.0" encoding="utf-8"?>
<!-- Generator: Adobe Illustrator 19.1.0, SVG Export Plug-In . SVG Version: 6.00 Build 0)  -->
<svg version="1.1" id="Layer_1" xmlns="http://www.w3.org/2000/svg" xmlns:xlink="http://www.w3.org/1999/xlink" x="0px" y="0px"
	 viewBox="-139 51 512 512" style="enable-background:new -139 51 512 512;" xml:space="preserve">
<style type="text/css">
	.st0{fill:none;}
	.st1{fill:#F8F6F6;}
</style>
<path class="st0" d="M258.2,234c-48.2,0-87.2-39.1-87.2-87.2c0-15.9,4.3-30.8,11.7-43.6h-299.9c-7.7,0-13.9,6.2-13.9,13.9v395
	c0,7.7,6.2,13.9,13.9,13.9h395c7.7,0,13.9-6.2,13.9-13.9V227.3C281.4,231.6,270.1,234,258.2,234z"/>
<path class="st0" d="M-101.1,512v-395c0-7.7,6.2-13.9,13.9-13.9h-30c-7.7,0-13.9,6.2-13.9,13.9v395c0,7.7,6.2,13.9,13.9,13.9h30
	C-94.9,525.9-101.1,519.7-101.1,512z"/>
<path class="st0" d="M171,146.7c0-15.9,4.3-30.8,11.7-43.6h-299.9c-7.7,0-13.9,6.2-13.9,13.9v73.3h313.8
	C175.3,177.5,171,162.6,171,146.7z"/>
<path class="st0" d="M-131.1,190.3h30v-73.3c0-7.7,6.2-13.9,13.9-13.9h-30c-7.7,0-13.9,6.2-13.9,13.9V190.3z"/>
<path class="st0" d="M342.1,123.7l-16.6-32C309.4,72,285,59.5,257.7,59.5c-48.4,0-87.7,39.3-87.7,87.7c0,48.4,39.3,87.7,87.7,87.7
	C315.4,234.9,357.7,179.8,342.1,123.7z"/>
<path class="st0" d="M280.8,195c-9.6,9.6-25.2,9.6-34.8,0l-47.6-47.6c-9.6-9.6-9.6-25.2,0-34.8c9.6-9.6,25.2-9.6,34.8,0l30.2,30.2
	L315,91.2c-49.2-50.7-136.9-16.6-136.9,55.5c0,43.9,35.7,79.7,79.7,79.7c47,0,84.1-40.8,79.3-87.8L280.8,195z"/>
<path class="st0" d="M151.9,138.5c0,4.1-3.4,7.5-7.5,7.5s-7.5-3.4-7.5-7.5v-27.9h-28v27.9c0,4.1-3.4,7.5-7.5,7.5
	c-4.1,0-7.5-3.4-7.5-7.5v-27.9h-28v27.9c0,4.1-3.4,7.5-7.5,7.5c-4.1,0-7.5-3.4-7.5-7.5v-27.9H23v27.9c0,4.1-3.4,7.5-7.5,7.5
	S8,142.7,8,138.5v-27.9h-28v27.9c0,4.1-3.4,7.5-7.5,7.5c-4.1,0-7.5-3.4-7.5-7.5v-27.9h-28v27.9c0,4.1-3.4,7.5-7.5,7.5
	s-7.5-3.4-7.5-7.5v-27.9h-39.6c-3.5,0-6.4,2.9-6.4,6.4v65.8h294.3c-4.9-11.8-7.1-24.1-7.1-36.1c0-12.4,2.4-24.6,7.1-36.1
	c0,0,0,0,0,0h-18.4V138.5z"/>
<path class="st0" d="M355.2,85.8c-3.8-3.8-9.8-3.8-13.6,0c-8.4,8.4-61.1,61.1-69.6,69.6c-4.7,4.7-12.4,4.7-17.2,0l-32.2-32.2
	c-3.8-3.8-9.8-3.8-13.6,0c-3.8,3.7-3.8,9.8,0,13.6l47.6,47.6c3.8,3.8,9.8,3.8,13.6,0c20.3-20.3,78.3-78.3,85-85
	C358.9,95.7,358.9,89.6,355.2,85.8L355.2,85.8z"/>
<path class="st1" d="M365.8,75.2c-9.6-9.6-25.2-9.6-34.8,0l-5.3,5.3C283.4,37.2,211.3,44,178.1,95.6h-26.3V84.8
	c0-4.1-3.4-7.5-7.5-7.5c-4.1,0-7.5,3.4-7.5,7.5v10.8h-28V84.8c0-4.1-3.4-7.5-7.5-7.5c-4.1,0-7.5,3.4-7.5,7.5v10.8h-28V84.8
	c0-4.1-3.4-7.5-7.5-7.5s-7.5,3.4-7.5,7.5v10.8H23V84.8c0-4.1-3.4-7.5-7.5-7.5c-4.1,0-7.5,3.4-7.5,7.5v10.8h-28V84.8
	c0-4.1-3.4-7.5-7.5-7.5c-4.1,0-7.5,3.4-7.5,7.5v10.8h-28V84.8c0-4.1-3.4-7.5-7.5-7.5s-7.5,3.4-7.5,7.5v10.8h-39.6
	c-11.8,0-21.4,9.6-21.4,21.4v395c0,11.8,9.6,21.4,21.4,21.4H40.9c4.1,0,7.5-3.4,7.5-7.5s-3.4-7.5-7.5-7.5h-158.5
	c-3.5,0-6.4-2.9-6.4-6.4V197.8h302.1c16.9,26.2,46.3,43.6,79.7,43.6c9,0,17.9-1.3,25.9-3.6V512c0,3.5-2.9,6.4-6.4,6.4H75.9
	c-4.1,0-7.5,3.4-7.5,7.5s3.4,7.5,7.5,7.5h259.3c14.6,0,25.7-13,23.5-27.4l-18.4-119.4c-0.6-4.1-4.4-6.9-8.6-6.3
	c-4.1,0.6-6.9,4.5-6.3,8.6l18.4,119.4c0.8,5.3-3.3,10.1-8.7,10.1h-37.4c0.7-2.3,1-4.5,1-6.4V232.1c0.8-0.4,1.6-0.8,2.4-1.2l18.9,123
	c0.6,4.1,4.5,6.9,8.6,6.3c4.1-0.6,6.9-4.5,6.3-8.6l-19.9-129.5c29.3-22.3,43.6-59.6,35.1-96.5l15.6-15.6
	C375.4,100.4,375.4,84.8,365.8,75.2z M170.3,110.6c-4.7,11.4-7.1,23.7-7.1,36.1c0,12,2.3,24.2,7.1,36.1H-124V117
	c0-3.5,2.9-6.4,6.4-6.4H-78v27.9c0,4.1,3.4,7.5,7.5,7.5s7.5-3.4,7.5-7.5v-27.9h28v27.9c0,4.1,3.4,7.5,7.5,7.5c4.1,0,7.5-3.4,7.5-7.5
	v-27.9H8v27.9c0,4.1,3.4,7.5,7.5,7.5s7.5-3.4,7.5-7.5v-27.9h28v27.9c0,4.1,3.4,7.5,7.5,7.5c4.1,0,7.5-3.4,7.5-7.5v-27.9h28v27.9
	c0,4.1,3.4,7.5,7.5,7.5c4.1,0,7.5-3.4,7.5-7.5v-27.9h28v27.9c0,4.1,3.4,7.5,7.5,7.5s7.5-3.4,7.5-7.5v-27.9L170.3,110.6
	C170.3,110.6,170.3,110.6,170.3,110.6z M257.9,226.4c-44,0-79.7-35.8-79.7-79.7c0-72.2,87.7-106.3,136.9-55.5l-51.6,51.6l-30.2-30.2
	c-9.6-9.6-25.2-9.6-34.8,0c-9.6,9.6-9.6,25.2,0,34.8L246,195c9.6,9.6,25.2,9.6,34.8,0l56.4-56.4C342,185.6,304.9,226.4,257.9,226.4z
	 M355.2,99.4c-6.7,6.7-64.7,64.7-85,85c-3.8,3.8-9.8,3.8-13.6,0L209,136.8c-3.8-3.8-3.7-9.8,0-13.6c3.8-3.8,9.8-3.8,13.6,0
	l32.2,32.2c4.7,4.7,12.4,4.7,17.2,0c8.5-8.5,61.2-61.2,69.6-69.6c3.8-3.8,9.8-3.8,13.6,0h0C358.9,89.6,358.9,95.7,355.2,99.4z"/>
<path class="st1" d="M-71.7,276.6h303.2c4.1,0,7.5-3.4,7.5-7.5c0-4.1-3.4-7.5-7.5-7.5H-71.7c-4.1,0-7.5,3.4-7.5,7.5
	C-79.2,273.2-75.8,276.6-71.7,276.6z"/>
<path class="st1" d="M-71.7,321.1h303.2c4.1,0,7.5-3.4,7.5-7.5c0-4.1-3.4-7.5-7.5-7.5H-71.7c-4.1,0-7.5,3.4-7.5,7.5
	C-79.2,317.8-75.8,321.1-71.7,321.1z"/>
<path class="st1" d="M-71.7,365.7h303.2c4.1,0,7.5-3.4,7.5-7.5s-3.4-7.5-7.5-7.5H-71.7c-4.1,0-7.5,3.4-7.5,7.5
	S-75.8,365.7-71.7,365.7z"/>
<path class="st1" d="M-71.7,410.3h303.2c4.1,0,7.5-3.4,7.5-7.5c0-4.1-3.4-7.5-7.5-7.5H-71.7c-4.1,0-7.5,3.4-7.5,7.5
	C-79.2,407-75.8,410.3-71.7,410.3z"/>
<path class="st1" d="M-71.7,454.9h303.2c4.1,0,7.5-3.4,7.5-7.5s-3.4-7.5-7.5-7.5H-71.7c-4.1,0-7.5,3.4-7.5,7.5
	S-75.8,454.9-71.7,454.9z"/>
</svg>
