<svg height="512pt" viewBox="0 0 512 512" width="512pt" xmlns="http://www.w3.org/2000/svg"><path d="m351.300781 44.59375v13.609375h-190.601562v-13.609375c0-10.980469 8.347656-19.878906 18.644531-19.878906h16.648438c6.402343 0 11.589843-5.535156 11.589843-12.359375s5.1875-12.355469 11.589844-12.355469h73.65625c6.402344 0 11.589844 5.53125 11.589844 12.355469 0 6.828125 5.191406 12.359375 11.589843 12.359375h16.648438c10.296875 0 18.644531 8.898437 18.644531 19.878906zm0 0" fill="#e8a774"/><path d="m332.65625 24.714844h-16.648438c-6.402343 0-11.589843-5.535156-11.589843-12.359375s-5.1875-12.355469-11.589844-12.355469h-30.902344c6.398438 0 11.589844 5.53125 11.589844 12.355469s5.1875 12.359375 11.589844 12.359375h16.648437c10.296875 0 18.644532 8.898437 18.644532 19.878906v13.609375h30.90625v-13.609375c-.003907-10.980469-8.351563-19.878906-18.648438-19.878906zm0 0" fill="#de9962"/><path d="m424.949219 197.28125v290.507812h-99.382813v-149.589843c0-38.367188-31.164062-69.425781-69.566406-69.425781-38.421875 0-69.566406 31.085937-69.566406 69.425781v149.589843h-99.382813v-290.507812zm0 0" fill="#e8a774"/><path d="m225.09375 268.773438c-38.417969 0-69.566406 31.085937-69.566406 69.425781v149.589843h30.90625v-149.589843c0-33.039063 23.132812-60.667969 54.113281-67.683594-4.972656-1.125-10.140625-1.742187-15.453125-1.742187zm0 0" fill="#de9962"/><path d="m394.042969 197.28125h30.90625v290.507812h-30.90625zm0 0" fill="#de9962"/><path d="m410.527344 146.285156h-309.054688v-87.578125c0-2.273437 1.84375-4.121093 4.121094-4.121093h300.8125c2.277344 0 4.121094 1.847656 4.121094 4.121093zm0 0" fill="#d48b53"/><path d="m379.621094 54.589844v91.695312h30.90625v-87.578125c0-2.273437-1.84375-4.121093-4.121094-4.121093h-26.785156zm0 0" fill="#c7824e"/><path d="m424.949219 191.675781h-337.898438v-49.839843c0-2.277344 1.84375-4.121094 4.121094-4.121094h329.65625c2.277344 0 4.121094 1.84375 4.121094 4.121094zm0 0" fill="#e8a774"/><path d="m394.042969 137.714844v53.960937h30.90625v-49.839843c0-2.277344-1.84375-4.121094-4.121094-4.121094zm0 0" fill="#de9962"/><path d="m428.039062 209.191406h-344.078124c-7.964844 0-14.425782-6.457031-14.425782-14.425781v-18.542969c0-1.136718.925782-2.058594 2.0625-2.058594h368.804688c1.136718 0 2.058594.921876 2.058594 2.058594v18.542969c.003906 7.96875-6.453126 14.425781-14.421876 14.425781zm0 0" fill="#d48b53"/><path d="m440.402344 174.164062h-30.90625c1.140625 0 2.0625.921876 2.0625 2.058594v18.542969c0 7.964844-6.457032 14.425781-14.425782 14.425781h30.90625c7.964844 0 14.421876-6.457031 14.421876-14.425781v-18.542969c.003906-1.136718-.921876-2.058594-2.058594-2.058594zm0 0" fill="#c7824e"/><path d="m340.476562 88.652344h-168.953124c-4.140626 0-7.5 3.355468-7.5 7.5 0 4.140625 3.359374 7.5 7.5 7.5h168.949218c4.144532 0 7.5-3.359375 7.5-7.5 0-4.144532-3.355468-7.5-7.496094-7.5zm0 0" fill="#e8a774"/><path d="m155.558594 265.785156c0 9.957032-8.074219 18.03125-18.03125 18.03125-9.953125 0-18.027344-8.074218-18.027344-18.03125 0-9.953125 8.074219-18.027344 18.027344-18.027344 9.957031 0 18.03125 8.074219 18.03125 18.027344zm0 0" fill="#d48b53"/><path d="m392.5 265.785156c0 9.957032-8.074219 18.03125-18.027344 18.03125-9.957031 0-18.03125-8.074218-18.03125-18.03125 0-9.953125 8.074219-18.027344 18.03125-18.027344 9.953125 0 18.027344 8.074219 18.027344 18.027344zm0 0" fill="#d48b53"/><g fill="#c7824e"><path d="m196.765625 326.792969h-119.5c-4.144531 0-7.5 3.359375-7.5 7.5 0 4.144531 3.355469 7.5 7.5 7.5h119.5c4.140625 0 7.5-3.355469 7.5-7.5 0-4.140625-3.359375-7.5-7.5-7.5zm0 0"/><path d="m196.765625 410.238281h-119.5c-4.144531 0-7.5 3.359375-7.5 7.5s3.355469 7.5 7.5 7.5h119.5c4.140625 0 7.5-3.359375 7.5-7.5s-3.359375-7.5-7.5-7.5zm0 0"/><path d="m315.234375 341.792969h119.5c4.144531 0 7.5-3.355469 7.5-7.5 0-4.140625-3.355469-7.5-7.5-7.5h-119.5c-4.140625 0-7.5 3.359375-7.5 7.5 0 4.144531 3.359375 7.5 7.5 7.5zm0 0"/><path d="m434.734375 410.238281h-119.5c-4.140625 0-7.5 3.359375-7.5 7.5s3.359375 7.5 7.5 7.5h119.5c4.144531 0 7.5-3.359375 7.5-7.5s-3.355469-7.5-7.5-7.5zm0 0"/><path d="m137.527344 291.316406c14.078125 0 25.53125-11.453125 25.53125-25.53125 0-14.074218-11.453125-25.527344-25.53125-25.527344-14.074219 0-25.527344 11.453126-25.527344 25.527344 0 14.078125 11.453125 25.53125 25.527344 25.53125zm0-36.058594c5.808594 0 10.53125 4.722657 10.53125 10.527344 0 5.808594-4.722656 10.53125-10.53125 10.53125-5.804688 0-10.527344-4.722656-10.527344-10.53125 0-5.804687 4.722656-10.527344 10.527344-10.527344zm0 0"/><path d="m374.472656 291.316406c14.074219 0 25.527344-11.453125 25.527344-25.53125 0-14.074218-11.453125-25.527344-25.527344-25.527344-14.078125 0-25.53125 11.453126-25.53125 25.527344 0 14.078125 11.453125 25.53125 25.53125 25.53125zm0-36.058594c5.804688 0 10.527344 4.722657 10.527344 10.527344 0 5.808594-4.722656 10.53125-10.527344 10.53125-5.808594 0-10.53125-4.722656-10.53125-10.53125 0-5.804687 4.722656-10.527344 10.53125-10.527344zm0 0"/></g><path d="m495.515625 512h-479.03125c-9.105469 0-16.484375-7.378906-16.484375-16.484375 0-9.101563 7.378906-16.480469 16.484375-16.480469h479.03125c9.105469 0 16.484375 7.378906 16.484375 16.480469 0 9.105469-7.378906 16.484375-16.484375 16.484375zm0 0" fill="#78909c"/><path d="m495.515625 479.035156h-30.902344c9.101563 0 16.480469 7.378906 16.480469 16.480469 0 9.105469-7.378906 16.484375-16.480469 16.484375h30.902344c9.105469 0 16.484375-7.378906 16.484375-16.484375 0-9.101563-7.378906-16.480469-16.484375-16.480469zm0 0" fill="#6c838c"/></svg>