<?xml version="1.0" encoding="utf-8"?>
<!-- Generator: Adobe Illustrator 19.1.0, SVG Export Plug-In . SVG Version: 6.00 Build 0)  -->
<svg version="1.1" id="Layer_1" xmlns="http://www.w3.org/2000/svg" xmlns:xlink="http://www.w3.org/1999/xlink" x="0px" y="0px"
	 viewBox="-49 141 512 512" style="enable-background:new -49 141 512 512;" xml:space="preserve">
<style type="text/css">
	.st0{fill:#A4C639;}
</style>
<g id="Outline">
	<polygon class="st0" points="31,249.7 20.7,239.3 9.3,250.7 31,272.3 68.7,234.7 57.3,223.3 	"/>
	<rect x="95" y="221" class="st0" width="120" height="16"/>
	<rect x="95" y="253" class="st0" width="120" height="16"/>
	<rect x="95" y="413" class="st0" width="144" height="16"/>
	<rect x="95" y="445" class="st0" width="144" height="16"/>
	<polygon class="st0" points="57.3,407.3 39,425.7 20.7,407.3 9.3,418.7 27.7,437 9.3,455.3 20.7,466.7 39,448.3 57.3,466.7 
		68.7,455.3 50.3,437 68.7,418.7 	"/>
	<rect x="95" y="509" class="st0" width="136" height="16"/>
	<rect x="95" y="541" class="st0" width="136" height="16"/>
	<polygon class="st0" points="57.3,503.3 39,521.7 20.7,503.3 9.3,514.7 27.7,533 9.3,551.3 20.7,562.7 39,544.3 57.3,562.7 
		68.7,551.3 50.3,533 68.7,514.7 	"/>
	<polygon class="st0" points="31,345.7 20.7,335.3 9.3,346.7 31,368.3 68.7,330.7 57.3,319.3 	"/>
	<rect x="95" y="317" class="st0" width="176" height="16"/>
	<rect x="95" y="349" class="st0" width="176" height="16"/>
	<path class="st0" d="M375,429h-40v-10.4c29.6,9,60.9-7.8,69.8-37.4c9-29.6-7.8-60.9-37.4-69.8c-5.3-1.6-10.9-2.4-16.4-2.4h-16
		v-67.3L250.3,157H-33v464h288v16h192V501C447,461.3,414.7,429,375,429z M351,467.1L339.9,445h22.1L351,467.1z M366.5,570.2
		L351,585.7l-15.5-15.5L351,469.6L366.5,570.2z M351,405c-22.1,0-40-17.9-40-40v-8h24c20.1,0.1,39.3,8.5,52.9,23.3
		C381.7,395.2,367.2,405,351,405z M390.6,360.9c-15.7-12.8-35.3-19.8-55.6-19.9h-24v-16h40C371.4,325.1,388.5,340.5,390.6,360.9
		L390.6,360.9z M255,184.3l52.7,52.7H255V184.3z M-17,605V173h256v80h80v56h-24v56c0,18.3,9,35.4,24,45.9v18.6
		c-36.4,4.1-64,34.9-64,71.5v104H-17z M431,621H271V501c0-29,22.3-53.2,51.2-55.8l12.5,25.1l-16.2,105.5l32.5,32.5l32.5-32.5
		l-16.2-105.5l12.5-25.1C408.7,447.8,431,472,431,501V621z"/>
</g>
</svg>
