<?xml version="1.0" encoding="utf-8"?>
<!-- Generator: Adobe Illustrator 19.1.0, SVG Export Plug-In . SVG Version: 6.00 Build 0)  -->
<svg version="1.1" id="Layer_1" xmlns="http://www.w3.org/2000/svg" xmlns:xlink="http://www.w3.org/1999/xlink" x="0px" y="0px"
	 viewBox="-65 157 480 480" style="enable-background:new -65 157 480 480;" xml:space="preserve">
<style type="text/css">
	.st0{fill:#FF9800;}
</style>
<path class="st0" d="M304,525h-16v32H144v16h144v24c0,13.3-10.7,24-24,24H88c-8.6,0-16.5-4.6-20.8-12l-13.9,8
	c7.2,12.4,20.4,20,34.7,20h176c22.1,0,40-17.9,40-40V525z"/>
<path class="st0" d="M168,589h16v16h-16V589z"/>
<path class="st0" d="M216,373v-16h-24.4c-4-51.1-44.5-91.6-95.6-95.6V237H80v24.4c-5.4,0.4-10.7,1.3-16,2.5V221h128v-16H64v-8
	c0-13.3,10.7-24,24-24h176c5.8,0,11.5,2.1,15.9,6l10.6-12c-7.3-6.4-16.7-10-26.5-10H88c-22.1,0-40,17.9-40,40v72
	c-36,15.1-60.6,49.1-63.6,88H-40v16h24.4c3.8,51.1,44.4,91.8,95.6,95.6V493h16v-24.4c51.1-3.8,91.8-44.5,95.6-95.6H216z M80,437
	v15.6c-11.2-1-22-4.1-32-9.2V429c0-22.1,17.9-40,40-40s40,17.9,40,40v14.4c-10,5.1-20.8,8.2-32,9.3V437H80z M64,349
	c0-13.3,10.7-24,24-24s24,10.7,24,24s-10.7,24-24,24S64,362.3,64,349z M146.7,430.6c-0.9,0.8-1.8,1.4-2.7,2.2V429
	c0-20.9-11.7-40-30.2-49.7c12.9-10.8,17.6-28.5,11.8-44.3c-5.8-15.8-20.8-26.3-37.6-26.3S56.2,319.2,50.4,335
	c-5.8,15.8-1,33.5,11.8,44.3C43.7,389,32,408.1,32,429v3.8c-0.9-0.7-1.8-1.4-2.7-2.2C12.8,415.8,2.4,395.2,0.4,373H16v-16H0.4
	c3.9-42.2,37.4-75.7,79.6-79.6V293h16v-15.6c42.2,3.9,75.7,37.4,79.6,79.6H160v16h15.6C173.6,395.2,163.2,415.8,146.7,430.6
	L146.7,430.6z"/>
<path class="st0" d="M392,301c4.4,0,8-3.6,8-8v-96c0-4.4-3.6-8-8-8H216c-4.4,0-8,3.6-8,8v96c0,4.4,3.6,8,8,8H392z M224,205h160v80
	H224V205z"/>
<path class="st0" d="M240,221h32v16h-32V221z"/>
<path class="st0" d="M288,221h80v16h-80V221z"/>
<path class="st0" d="M240,253h128v16H240V253z"/>
<path class="st0" d="M390.6,317c-6.2,0-12.2,2.3-16.8,6.4L304,384.9V317h-16v80h2.3l-45.5,40.2c-29.6,1.7-52.8,26.2-52.8,55.8v14.1
	c0,7.9-4.5,15.2-11.6,18.7c-3.3,1.7-5.1,5.4-4.2,9s4.1,6.2,7.8,6.2h56c29.7,0,54.1-23.2,55.8-52.8l113.8-129
	c6.6-7.5,8.2-18.2,4.1-27.3C409.6,322.9,400.6,317,390.6,317z M240,525h-36.6c3-5.5,4.6-11.6,4.6-17.9V493c0-20.8,16-38.2,36.8-39.9
	l35.1,35.1C278.2,509,260.8,525,240,525z M397.6,348.6l-110,124.7l-28-28l124.7-110c3.7-3.3,9.4-3.1,12.9,0.4
	C400.7,339.3,400.9,344.9,397.6,348.6z"/>
<path class="st0" d="M-56,597h176c4.4,0,8-3.6,8-8v-64c0-4.4-3.6-8-8-8H64v-40H48v40H-56c-4.4,0-8,3.6-8,8v64
	C-64,593.4-60.4,597-56,597z M-48,533h160v48H-48V533z"/>
<path class="st0" d="M-32,549H8v16h-40V549z"/>
<path class="st0" d="M24,549h72v16H24V549z"/>
<path class="st0" d="M-56,269h80c4.4,0,8-3.6,8-8v-64c0-4.4-3.6-8-8-8h-80c-4.4,0-8,3.6-8,8v64C-64,265.4-60.4,269-56,269z M-48,205
	h64v48h-64V205z"/>
<path class="st0" d="M-32,221H0v16h-32V221z"/>
</svg>
