<?xml version="1.0" encoding="utf-8"?>
<!-- Generator: Adobe Illustrator 19.1.0, SVG Export Plug-In . SVG Version: 6.00 Build 0)  -->
<svg version="1.1" id="Layer_1" xmlns="http://www.w3.org/2000/svg" xmlns:xlink="http://www.w3.org/1999/xlink" x="0px" y="0px"
	 viewBox="-49 141 512 512" style="enable-background:new -49 141 512 512;" xml:space="preserve">
<style type="text/css">
	.st0{fill:#1094F1;}
</style>
<title>Prototyping-Mockup-3d-model-dimension</title>
<g id="Expand">
	
		<rect x="164.8" y="383.6" transform="matrix(-0.8637 0.5039 -0.5039 -0.8637 523.6893 641.5976)" class="st0" width="20.7" height="16"/>
	
		<rect x="132.5" y="402.4" transform="matrix(-0.8636 0.5041 -0.5041 -0.8636 473.2022 692.7641)" class="st0" width="20.7" height="16"/>
	
		<rect x="230.9" y="381.3" transform="matrix(-0.5039 0.8637 -0.8637 -0.5039 697.5468 382.5959)" class="st0" width="16" height="20.7"/>
	
		<rect x="263.1" y="400" transform="matrix(-0.5039 0.8637 -0.8637 -0.5039 762.2017 383.043)" class="st0" width="16" height="20.7"/>
	<path class="st0" d="M171,235.9l32,18.7c2.5,1.5,5.6,1.5,8.1,0l32-18.7c3.8-2.2,5.1-7.1,2.9-10.9c-0.7-1.2-1.7-2.2-2.9-2.9
		L211,203.4c-2.5-1.5-5.6-1.5-8.1,0l-32,18.7c-3.8,2.2-5.1,7.1-2.9,10.9C168.7,234.2,169.7,235.2,171,235.9L171,235.9z M207,219.6
		l16.1,9.4l-16.1,9.4l-16.1-9.4L207,219.6z"/>
	<path class="st0" d="M383,317h-24c-4.4,0-8,3.6-8,8v32h-40V229c0-2.9-1.5-5.5-4-6.9l-96-56c-2.5-1.5-5.6-1.5-8.1,0l-96,56
		c-2.4,1.4-3.9,4.1-3.9,6.9v128H63v-32c0-4.4-3.6-8-8-8H31c-17.7,0-32,14.3-32,32v224c0,17.7,14.3,32,32,32h352
		c17.7,0,32-14.3,32-32V349C415,331.3,400.7,317,383,317z M119,242.9l80,46.7v181.5l-80-46.7V242.9z M215,289.6l80-46.7v181.5
		l-80,46.7V289.6z M207,182.3l80.1,46.7L207,275.7L126.9,229L207,182.3z M15,349c0-8.8,7.2-16,16-16h16v208H31
		c-5.6,0-11.1,1.5-16,4.3V349z M383,589H31c-8.8,0-16-7.2-16-16s7.2-16,16-16h24c4.4,0,8-3.6,8-8V373h40v56c0,2.9,1.5,5.5,4,6.9
		l96,56c2.5,1.5,5.6,1.5,8.1,0l96-56c2.4-1.4,3.9-4.1,3.9-6.9v-56h40v176c0,4.4,3.6,8,8,8h24c8.8,0,16,7.2,16,16S391.8,589,383,589z
		 M399,545.3c-4.9-2.8-10.4-4.3-16-4.3h-16V333h16c8.8,0,16,7.2,16,16V545.3z"/>
	<rect x="103" y="509" class="st0" width="16" height="16"/>
	<rect x="135" y="509" class="st0" width="192" height="16"/>
	<rect x="71" y="621" class="st0" width="16" height="16"/>
	<rect x="103" y="621" class="st0" width="192" height="16"/>
	<rect x="87" y="541" class="st0" width="216" height="16"/>
	<rect x="431" y="389" class="st0" width="16" height="160"/>
	<rect x="71" y="293" class="st0" width="16" height="16"/>
	<path class="st0" d="M87,217.6l76-44.3l-8-13.8l-80,46.7c-2.5,1.4-4,4.1-4,6.9v64h16V217.6z"/>
</g>
</svg>
