<?xml version="1.0" encoding="utf-8"?>
<!-- Generator: Adobe Illustrator 19.1.0, SVG Export Plug-In . SVG Version: 6.00 Build 0)  -->
<svg version="1.1" id="Capa_1" xmlns="http://www.w3.org/2000/svg" xmlns:xlink="http://www.w3.org/1999/xlink" x="0px" y="0px"
	 viewBox="-86 178.4 437.6 437.6" style="enable-background:new -86 178.4 437.6 437.6;" xml:space="preserve">
<style type="text/css">
	.st0{fill:#DC2D3C;}
</style>
<g>
	<path class="st0" d="M23,212.7h39.5c3,0,5.5-2.5,5.5-5.5c0-3-2.5-5.5-5.5-5.5H23c-3,0-5.5,2.5-5.5,5.5
		C17.5,210.2,20,212.7,23,212.7z"/>
	<path class="st0" d="M42.8,562.2c-9.9,0-17.9,8-17.9,17.9s8,17.9,17.9,17.9s17.9-8,17.9-17.9S52.7,562.2,42.8,562.2z M42.8,587
		c-3.8,0-6.9-3.1-6.9-6.9s3.1-6.9,6.9-6.9c3.8,0,6.9,3.1,6.9,6.9S46.6,587,42.8,587z"/>
	<path class="st0" d="M-26.1,307.6h69.5c3,0,5.5-2.5,5.5-5.5s-2.5-5.5-5.5-5.5h-69.5c-3,0-5.5,2.5-5.5,5.5S-29.2,307.6-26.1,307.6z"
		/>
	<path class="st0" d="M-26.1,407h69.5c3,0,5.5-2.5,5.5-5.5c0-3-2.5-5.5-5.5-5.5h-69.5c-3,0-5.5,2.5-5.5,5.5
		C-31.6,404.5-29.2,407-26.1,407z"/>
	<path class="st0" d="M72.7,416.3h-98.9c-3,0-5.5,2.5-5.5,5.5s2.5,5.5,5.5,5.5h98.9c3,0,5.5-2.5,5.5-5.5S75.8,416.3,72.7,416.3z"/>
	<path class="st0" d="M339.4,396.9c3,0,5.5-2.5,5.5-5.5V250.5c0-3-2.5-5.5-5.5-5.5H164.9v-43.7c0-12.6-10.3-22.9-22.9-22.9H-56.4
		c-12.6,0-22.9,10.3-22.9,22.9v391.8c0,12.6,10.3,22.9,22.9,22.9H142c12.6,0,22.9-10.3,22.9-22.9v-81.8h174.5c3,0,5.5-2.5,5.5-5.5
		v-83.1c0-3-2.5-5.5-5.5-5.5H164.9v-20.3H339.4L339.4,396.9z M333.9,385.9H93.3V256h240.6V385.9z M87.8,417.2c-3,0-5.5,2.5-5.5,5.5
		v29.9h-125v-90.9h125v13.9H-26.1c-3,0-5.5,2.5-5.5,5.5s2.5,5.5,5.5,5.5H82.3v4.8c0,3,2.5,5.5,5.5,5.5h40.4v20.3H87.8L87.8,417.2z
		 M87.8,511.3h40.4v9.3H-42.7v-37.2h125v22.4C82.3,508.8,84.8,511.3,87.8,511.3z M82.3,276.2H-26.1c-3,0-5.5,2.5-5.5,5.5
		c0,3,2.5,5.5,5.5,5.5H82.3v44.3h-125v-68.2h125V276.2z M-56.4,189.4H142c6.6,0,11.9,5.3,11.9,11.9v29.1H-68.3v-29.1
		C-68.3,194.8-63,189.4-56.4,189.4z M142,605H-56.4c-6.6,0-11.9-5.3-11.9-11.9V555h222.2v38.1C153.9,599.7,148.6,605,142,605z
		 M153.9,544H-68.3V241.4h222.2v3.6H87.8c-3,0-5.5,2.5-5.5,5.5v1.8H-48.2c-3,0-5.5,2.5-5.5,5.5V337c0,3,2.5,5.5,5.5,5.5H82.3v8.2
		H-48.2c-3,0-5.5,2.5-5.5,5.5v101.9c0,3,2.5,5.5,5.5,5.5H82.3v8.7H-48.2c-3,0-5.5,2.5-5.5,5.5V526c0,3,2.5,5.5,5.5,5.5h181.9
		c3,0,5.5-2.5,5.5-5.5v-14.8h14.7V544z M333.9,500.3H93.3v-72.1h240.6V500.3z M153.9,417.2h-14.7v-20.3h14.7V417.2z"/>
	<path class="st0" d="M118.3,290.5h190.6c3,0,5.5-2.5,5.5-5.5s-2.5-5.5-5.5-5.5H118.3c-3,0-5.5,2.5-5.5,5.5S115.3,290.5,118.3,290.5
		z"/>
	<path class="st0" d="M118.3,318.6h96.1c3,0,5.5-2.5,5.5-5.5c0-3-2.5-5.5-5.5-5.5h-96.1c-3,0-5.5,2.5-5.5,5.5
		C112.8,316.2,115.3,318.6,118.3,318.6z"/>
	<path class="st0" d="M118.3,453.9h190.6c3,0,5.5-2.5,5.5-5.5s-2.5-5.5-5.5-5.5H118.3c-3,0-5.5,2.5-5.5,5.5S115.3,453.9,118.3,453.9
		z"/>
	<path class="st0" d="M118.3,482h96.1c3,0,5.5-2.5,5.5-5.5s-2.5-5.5-5.5-5.5h-96.1c-3,0-5.5,2.5-5.5,5.5S115.3,482,118.3,482z"/>
	<path class="st0" d="M118.3,346.7H255c3,0,5.5-2.5,5.5-5.5c0-3-2.5-5.5-5.5-5.5H118.3c-3,0-5.5,2.5-5.5,5.5
		C112.8,344.3,115.3,346.7,118.3,346.7z"/>
	<path class="st0" d="M30.9,496.5h-57.1c-3,0-5.5,2.5-5.5,5.5s2.5,5.5,5.5,5.5h57.1c3,0,5.5-2.5,5.5-5.5S34,496.5,30.9,496.5z"/>
</g>
</svg>
