<?xml version="1.0" encoding="utf-8"?>
<!-- Generator: Adobe Illustrator 19.1.0, SVG Export Plug-In . SVG Version: 6.00 Build 0)  -->
<svg version="1.1" id="Capa_1" xmlns="http://www.w3.org/2000/svg" xmlns:xlink="http://www.w3.org/1999/xlink" x="0px" y="0px"
	 viewBox="-49 141 512 512" style="enable-background:new -49 141 512 512;" xml:space="preserve">
<style type="text/css">
	.st0{fill:#1D13ED;}
</style>
<g>
	<g>
		<path class="st0" d="M319.6,259.9c-1.9-1.9-4.4-2.9-7.1-2.9s-5.2,1.1-7.1,2.9c-1.9,1.9-2.9,4.4-2.9,7.1s1.1,5.2,2.9,7.1
			s4.4,2.9,7.1,2.9s5.2-1.1,7.1-2.9c1.9-1.9,2.9-4.4,2.9-7.1S321.4,261.8,319.6,259.9z"/>
	</g>
</g>
<g>
	<g>
		<path class="st0" d="M413,257h-63.8c-5.5,0-10,4.5-10,10s4.5,10,10,10H413c16.5,0,30,13.5,30,30v144c0,16.5-13.5,30-30,30h-14
			c-2.7,0-5.2,1.1-7.1,2.9L359,516.9l-32.9-32.9c-1.9-1.9-4.4-2.9-7.1-2.9H187c-16.5,0-30-13.5-30-30v-36c0-5.5-4.5-10-10-10
			s-10,4.5-10,10v36c0,27.6,22.4,50,50,50h127.9l37.1,37.1c2,2,4.5,2.9,7.1,2.9s5.1-1,7.1-2.9l37.1-37.1h9.9c27.6,0,50-22.4,50-50
			V307C463,279.4,440.6,257,413,257z"/>
	</g>
</g>
<g>
	<g>
		<path class="st0" d="M227,141H1c-27.6,0-50,22.4-50,50v144c0,27.6,22.4,50,50,50h21l37.1,37.1c2,2,4.5,2.9,7.1,2.9s5.1-1,7.1-2.9
			l37.1-37.1H227c27.6,0,50-22.4,50-50V191C277,163.4,254.6,141,227,141z M257,335c0,16.5-13.5,30-30,30H106.2
			c-2.7,0-5.2,1.1-7.1,2.9l-32.9,32.9l-32.9-32.9c-1.9-1.9-4.4-2.9-7.1-2.9H1c-16.5,0-30-13.5-30-30V191c0-16.5,13.5-30,30-30h226
			c16.5,0,30,13.5,30,30V335z"/>
	</g>
</g>
<g>
	<g>
		<path class="st0" d="M357.2,417.1l-35.5-84c-1.6-3.7-5.2-6.1-9.2-6.1c-4,0-7.6,2.4-9.2,6.1l-35.5,84c-2.1,5.1,0.2,11,5.3,13.1
			c5.1,2.1,11-0.2,13.1-5.3l5-11.9h42.5l5,11.9c1.6,3.8,5.3,6.1,9.2,6.1c1.3,0,2.6-0.3,3.9-0.8C356.9,428.1,359.3,422.2,357.2,417.1
			z M299.7,393l12.8-30.3l12.8,30.3H299.7z"/>
	</g>
</g>
<g>
	<g>
		<path class="st0" d="M160.5,297.9l-9.5-7c2.9-6,4.6-12.8,4.6-20v-16c0-25.4-20.6-46-46-46s-46,20.6-46,46v16c0,25.4,20.6,46,46,46
			c11,0,21.1-3.9,29-10.3l10,7.4c1.8,1.3,3.9,1.9,5.9,1.9c3.1,0,6.1-1.4,8.1-4.1C165.9,307.5,164.9,301.2,160.5,297.9z M135.5,271
			c0,2.7-0.4,5.3-1.2,7.7l-10.6-7.8c-4.4-3.3-10.7-2.3-14,2.1c-3.3,4.4-2.3,10.7,2.1,14l9.5,7c-3.6,1.9-7.6,2.9-11.9,2.9
			c-14.3,0-26-11.7-26-26v-16h0c0-14.3,11.7-26,26-26s26,11.7,26,26L135.5,271L135.5,271z"/>
	</g>
</g>
<g>
	<g>
		<path class="st0" d="M339.7,587.7l-86.7-46.5c-1.5-0.8-3.1-1.2-4.7-1.2h-262c-19.5,0-35.3,15.8-35.3,35.3v42.4
			c0,19.5,15.8,35.3,35.3,35.3h262c1.6,0,3.3-0.4,4.7-1.2l86.7-46.5c3.2-1.7,5.3-5.1,5.3-8.8C345,592.8,343,589.4,339.7,587.7z
			 M16.3,633h-30c-8.4,0-15.3-6.9-15.3-15.3v-42.4c0-8.4,6.9-15.3,15.3-15.3h30V633z M238.3,633H36.3v-27.3h127.2
			c5.5,0,10-4.5,10-10c0-5.5-4.5-10-10-10H36.3V560h202.1V633z M258.3,626.3v-59.6l55.5,29.8L258.3,626.3z"/>
	</g>
</g>
<g>
	<g>
		<path class="st0" d="M209.1,588.6c-1.9-1.9-4.4-2.9-7.1-2.9s-5.2,1.1-7.1,2.9s-2.9,4.4-2.9,7.1c0,2.6,1.1,5.2,2.9,7.1
			c1.9,1.9,4.4,2.9,7.1,2.9s5.2-1.1,7.1-2.9c1.9-1.9,2.9-4.4,2.9-7.1C212,593.1,210.9,590.5,209.1,588.6z"/>
	</g>
</g>
</svg>
