<?xml version="1.0" encoding="utf-8"?>
<!-- Generator: Adobe Illustrator 19.1.0, SVG Export Plug-In . SVG Version: 6.00 Build 0)  -->
<svg version="1.1" id="Capa_1" xmlns="http://www.w3.org/2000/svg" xmlns:xlink="http://www.w3.org/1999/xlink" x="0px" y="0px"
	 viewBox="-49 141 512 512" style="enable-background:new -49 141 512 512;" xml:space="preserve">
<style type="text/css">
	.st0{fill:#CB1AC5;}
</style>
<g>
	<path class="st0" d="M214.7,325.7c-17.5,17.5-17.5,46.1,0,63.6c17.5,17.5,46.1,17.5,63.6,0c17.5-17.5,17.5-46.1,0-63.6
		C260.7,308.2,232.2,308.2,214.7,325.7z M257.1,368.1c-5.8,5.8-15.4,5.8-21.2,0s-5.8-15.4,0-21.2c5.8-5.8,15.4-5.8,21.2,0
		C262.9,352.8,262.9,362.3,257.1,368.1z"/>
	<path class="st0" d="M437.4,145.4L410,172.8c-92.5,0-129.2,1.9-216.5,89.2l-58,58l-98.2-19.6c-6.2-1.2-12.5,1.6-15.8,7l-63.6,106.1
		c-3.1,5.1-2.8,11.5,0.6,16.4c3.4,4.9,9.4,7.2,15.2,6.1l80.7-16.1l-13,39.1c-1.8,5.4-0.4,11.3,3.6,15.4l0,0
		c-15.5,2.2-30.5,9.3-42.5,21.2c-26.4,26.4-45.9,90.9-51.4,140.9c-0.5,4.5,1.1,9,4.3,12.3c3.2,3.2,7.7,4.8,12.3,4.3
		c50-5.6,114.5-25,140.9-51.4c11.6-11.6,19-26.4,21.2-42.4c4,4,10,5.4,15.3,3.6l39.1-13l-16.1,80.7c-1.2,5.8,1.2,11.8,6.1,15.2
		c4.9,3.4,11.3,3.7,16.4,0.6l106.1-63.6c5.4-3.3,8.2-9.6,7-15.8L284,468.5l58-58c87.3-87.3,89.2-124,89.2-216.5l27.4-27.4
		c5.9-5.9,5.9-15.4,0-21.2C452.7,139.5,443.3,139.5,437.4,145.4z M41.8,331.9l68.2,13.6l-40.6,40.6L1,399.8L41.8,331.9z M87.4,580.3
		C71.6,596,27.7,612.7-16.3,620.3c7.7-44,24.3-87.9,40.1-103.7c8.8-8.8,20.3-13.2,31.8-13.2s23,4.4,31.8,13.2
		c8.5,8.5,13.2,19.8,13.2,31.8S95.9,571.8,87.4,580.3z M144.5,531.3l-71.7-71.7l10.6-31.8l93,93L144.5,531.3z M272.1,562.2
		L204.2,603l13.7-68.4l40.6-40.6L272.1,562.2z M320.7,389.3C307.9,402.2,214.9,495.1,204,506L98,400
		c10.8-10.8,103.9-103.9,116.7-116.7c17.2-17.2,32-30.8,45.6-41.4c8.1,23.5,21.5,44.8,39.2,62.6c17.8,17.8,39.2,31.1,62.6,39.2
		C351.5,357.3,337.9,372.1,320.7,389.3z M379.8,317.8c-22.3-6.2-42.6-18-59.1-34.6c-16.5-16.5-28.3-36.8-34.6-59.1
		c34-19.5,64.5-21.2,115-21.4C401,253.4,399.3,283.8,379.8,317.8z"/>
</g>
</svg>
