<?xml version="1.0" encoding="utf-8"?>
<!-- Generator: Adobe Illustrator 19.1.0, SVG Export Plug-In . SVG Version: 6.00 Build 0)  -->
<svg version="1.1" id="Capa_1" xmlns="http://www.w3.org/2000/svg" xmlns:xlink="http://www.w3.org/1999/xlink" x="0px" y="0px"
	 viewBox="-49 141 512 512" style="enable-background:new -49 141 512 512;" xml:space="preserve">
<style type="text/css">
	.st0{fill:#0CAEC1;}
</style>
<g>
	<g>
		<path class="st0" d="M435.7,176H115.3c-4.1,0-7.5,3.4-7.5,7.5s3.4,7.5,7.5,7.5h320.4c6.8,0,12.3,5.5,12.3,12.3v47.6H-34v-47.6
			c0-6.8,5.5-12.3,12.3-12.3H84.7c4.1,0,7.5-3.4,7.5-7.5s-3.4-7.5-7.5-7.5H-21.7c-15.1,0-27.3,12.3-27.3,27.3v398.1
			c0,9.1,7.4,16.6,16.6,16.6h159.8c4.1,0,7.5-3.4,7.5-7.5s-3.4-7.5-7.5-7.5H91.6V432.2l14.6-34.7c0.6-1.5,0.8-3.1,0.4-4.7
			l-15.1-62.9c-0.8-3.4-3.8-5.8-7.3-5.8H54.1c-3.5,0-6.5,2.4-7.3,5.8l-15.1,62.9c-0.4,1.6-0.2,3.2,0.4,4.7l14.5,34.4V603h-79.1
			c-0.9,0-1.6-0.7-1.6-1.6V265.9h482v32.8c0,4.1,3.4,7.5,7.5,7.5s7.5-3.4,7.5-7.5v-95.4C463,188.2,450.7,176,435.7,176z M60.1,339.1
			h18.3l13.1,54.8l-13.6,32.4c-0.7,1.2-1.2,2.5-1.2,4V603h-15V430.4c0-1-0.2-2-0.6-2.9l-14.1-33.6L60.1,339.1z"/>
	</g>
</g>
<g>
	<g>
		<path class="st0" d="M455.5,321.8c-4.1,0-7.5,3.4-7.5,7.5v272.2c0,0.9-0.7,1.6-1.6,1.6H310V563c38.5-17.7,63.2-55.9,63.2-98.7
			c0-19-5-37.8-14.4-54.2c-9.2-15.9-22.3-29.3-38-38.8c-4.5-2.7-10.1-2.8-14.7-0.2c-4.6,2.6-7.4,7.3-7.4,12.6v58.6h-68.3v-58.6
			c0-5.3-2.7-10-7.4-12.6c-4.6-2.6-10.2-2.5-14.7,0.2c-15.7,9.5-28.9,22.9-38,38.8c-9.5,16.4-14.4,35.1-14.4,54.2
			c0,42.8,24.6,81,63.2,98.7V603H158c-4.1,0-7.5,3.4-7.5,7.5s3.4,7.5,7.5,7.5h288.5c9.1,0,16.6-7.4,16.6-16.6V329.3
			C463,325.2,459.6,321.8,455.5,321.8z M295,558v45h-23v-74.2c0-4.1-3.4-7.5-7.5-7.5s-7.5,3.4-7.5,7.5V603h-23v-45
			c0-3.1-1.9-5.8-4.7-7c-35.5-14.4-58.5-48.5-58.5-86.8c0-32.8,16.6-62.5,44.5-79.7v65.2c0,4.1,3.4,7.5,7.5,7.5h83.3
			c4.1,0,7.5-3.4,7.5-7.5v-65.2c27.9,17.2,44.5,46.9,44.5,79.7c0,38.3-23,72.4-58.5,86.8C296.8,552.2,295,555,295,558z"/>
	</g>
</g>
<g>
	<g>
		<path class="st0" d="M292.7,214.8H25.2c-4.1,0-7.5,3.4-7.5,7.5c0,4.1,3.4,7.5,7.5,7.5h267.5c4.1,0,7.5-3.4,7.5-7.5
			S296.8,214.8,292.7,214.8z"/>
	</g>
</g>
<g>
	<g>
		<path class="st0" d="M329,212.8c-4.1,0-7.5,3.4-7.5,7.5v1.3c0,4.1,3.4,7.5,7.5,7.5s7.5-3.4,7.5-7.5v-1.3
			C336.5,216.1,333.1,212.8,329,212.8z"/>
	</g>
</g>
<g>
	<g>
		<path class="st0" d="M358.9,212.8c-4.1,0-7.5,3.4-7.5,7.5v1.3c0,4.1,3.4,7.5,7.5,7.5s7.5-3.4,7.5-7.5v-1.3
			C366.4,216.1,363,212.8,358.9,212.8z"/>
	</g>
</g>
<g>
	<g>
		<path class="st0" d="M388.8,212.8c-4.1,0-7.5,3.4-7.5,7.5v1.3c0,4.1,3.4,7.5,7.5,7.5s7.5-3.4,7.5-7.5v-1.3
			C396.3,216.1,393,212.8,388.8,212.8z"/>
	</g>
</g>
<g>
	<g>
		<path class="st0" d="M157.7,345.5h-5.2v-5.2c0-4.1-3.4-7.5-7.5-7.5s-7.5,3.4-7.5,7.5v5.2h-5.2c-4.1,0-7.5,3.4-7.5,7.5
			c0,4.1,3.4,7.5,7.5,7.5h5.2v5.2c0,4.1,3.4,7.5,7.5,7.5s7.5-3.4,7.5-7.5v-5.2h5.2c4.1,0,7.5-3.4,7.5-7.5
			C165.2,348.8,161.9,345.5,157.7,345.5z"/>
	</g>
</g>
<g>
	<g>
		<path class="st0" d="M376.3,346.2h-5.2v-5.2c0-4.1-3.4-7.5-7.5-7.5s-7.5,3.4-7.5,7.5v5.2h-5.2c-4.1,0-7.5,3.4-7.5,7.5
			c0,4.1,3.4,7.5,7.5,7.5h5.2v5.2c0,4.1,3.4,7.5,7.5,7.5s7.5-3.4,7.5-7.5v-5.2h5.2c4.1,0,7.5-3.4,7.5-7.5
			C383.8,349.5,380.5,346.2,376.3,346.2z"/>
	</g>
</g>
</svg>
