<?xml version="1.0"?>
<svg xmlns="http://www.w3.org/2000/svg" height="512px" viewBox="0 0 60 60" width="512px"><g><path d="m59 50h-5v-43c0-.554688-.449219-1-1-1h-31v-1c0-2.757812-2.242188-5-5-5h-16c-.550781 0-1 .445312-1 1v8c0 .554688.449219 1 1 1h5v43c0 .554688.449219 1 1 1h31v1c0 2.757812 2.242188 5 5 5h16c.550781 0 1-.445312 1-1v-8c0-.554688-.449219-1-1-1zm-7-21h-6.570312c-.414063 0-.804688.085938-1.175782.222656-.050781.015625-.105468.027344-.15625.046875-.019531.007813-.03125.019531-.050781.027344-1.203125.535156-2.046875 1.738281-2.046875 3.136719 0 .011718.003906.023437.003906.03125 0 .011718-.003906.023437-.003906.035156 0 .6875.289062 1.316406.75 1.769531.015625.015625.027344.035157.039062.046875.039063.039063.082032.066406.125.101563.046876.039062.097657.082031.148438.121093.097656.070313.199219.128907.304688.183594.023437.011719.042968.023438.066406.035156.117187.058594.238281.101563.363281.136719.03125.011719.058594.019531.085937.027344.105469.023437.210938.042969.316407.054687.039062.003907.078125.015626.121093.019532.328126.023437.679688.230468.679688.503906 0 .941406-.363281 1.816406-1.03125 2.476562-.652344.660157-1.527344 1.023438-2.46875 1.023438h-1c-1.414062 0-2.632812-.847656-3.183594-2.0625-.011718-.027344-.03125-.054688-.042968-.082031-.0625-.148438-.101563-.308594-.144532-.464844-.015625-.066406-.046875-.132813-.058594-.203125-.027343-.136719-.03125-.277344-.042968-.414062-.007813-.097657-.023438-.1875-.023438-.285157.003906-.175781.09375-.292969.148438-.34375.054687-.058593.175781-.136719.417968-.144531.945313 0 1.757813-.582031 2.160157-1.417969.023437-.050781.054687-.097656.074219-.148437.023437-.054688.035156-.113282.050781-.167969.035156-.101563.074219-.207031.09375-.316406.015625-.078125.015625-.160157.023437-.238281.011719-.089844.027344-.179688.027344-.277344 0-.003906 0-.003906 0-.003906 0-1.890626-1.539062-3.429688-3.429688-3.429688h-5.570312v-5.566406c0-.195313.039062-.378906.109375-.550782.003906 0 .003906-.003906.003906-.007812.007813-.015625.019531-.03125.027344-.050781.226563-.472657.714844-.804688 1.3125-.820313.15625.007813.3125.070313.421875.175782.074219.085937.125.195312.125.320312 0 .074219.015625.144531.023438.21875.003906.085938.007812.171875.023437.253906.015625.074219.039063.140625.058594.214844.027343.085938.046875.171875.082031.257812.03125.078126.074219.148438.113281.222657.035157.066406.066407.136719.109375.203125.359375.550781.925782.945312 1.585938 1.078125.019531.003906.039062.003906.054687.007812.128907.019531.253907.042969.386719.042969h.050781.011719c.023438 0 .042969-.003906.066406-.003906 1.449219.003906 2.777344-.570313 3.800782-1.582032.023437-.019531.039062-.046874.058593-.070312.207031-.210938.390625-.4375.5625-.675781.046875-.066407.09375-.136719.136719-.203125.15625-.242188.292969-.496094.410156-.761719.027344-.058594.050782-.117187.074219-.175781.117187-.292969.210937-.597656.277344-.914063.003906-.023437.007812-.046875.011719-.066406.066406-.339844.101562-.6875.101562-1.046875v-1c0-1.480469-.574219-2.859375-1.609375-3.882812-1.027344-1.042969-2.410156-1.617188-3.890625-1.617188-.679688 0-1.3125.265625-1.789062.753906-.457032.464844-.699219 1.078125-.703126 1.734375-.003906.015625-.007812.03125-.007812.050781-.007812.101563-.054688.195313-.121094.269532-.105468.109375-.269531.191406-.449218.191406-.789063 0-1.429688-.644531-1.429688-1.433594v-6.566406h21zm-23-14.433594v.003906c0 1.890626 1.539062 3.429688 3.429688 3.429688.011718 0 .023437-.003906.035156-.003906.011718 0 .023437.003906.035156.003906.671875 0 1.285156-.273438 1.738281-.710938.023438-.027343.046875-.054687.070313-.082031.078125-.082031.152344-.164062.21875-.253906.054687-.074219.097656-.15625.144531-.234375.027344-.054688.0625-.105469.089844-.160156.042969-.089844.074219-.183594.105469-.28125.019531-.058594.039062-.113282.054687-.171875.019531-.085938.03125-.175781.042969-.265625.007812-.054688.023437-.105469.027344-.160156.023437-.328126.234374-.679688.507812-.679688.941406 0 1.816406.363281 2.476562 1.03125.660157.652344 1.023438 1.527344 1.023438 2.46875v1c0 1.871094-1.480469 3.394531-3.332031 3.484375-.058594 0-.117188.015625-.175781.011719-.179688-.003906-.296876-.089844-.351563-.144532-.019531-.019531-.042969-.058593-.0625-.09375-.011719-.015624-.023437-.03125-.03125-.046874-.027344-.058594-.046875-.132813-.046875-.222657.015625-.628906-.226562-1.234375-.679688-1.699219-.015624-.011718-.03125-.019531-.042968-.03125-.085938-.089843-.183594-.164062-.28125-.238281-.03125-.019531-.054688-.046875-.085938-.070312-.398437-.269531-.882812-.429688-1.410156-.441407-.023438 0-.042969-.007812-.066406-.007812-.003906 0-.003906 0-.003906 0-1.890626 0-3.429688 1.539062-3.429688 3.429688v5.570312h-5.566406c-.777344 0-1.40625-.621094-1.429688-1.453125.007813-.1875.097656-.355469.21875-.453125.082032-.054688.171875-.09375.277344-.09375.492188 0 .949219-.148438 1.339844-.394531.003906-.003907.011718-.003907.015625-.007813.558593-.359375.960937-.929687 1.09375-1.59375.003906-.023437.003906-.046875.007812-.070312.019531-.121094.042969-.246094.042969-.375 0-.007813-.003906-.019532-.003906-.027344 0-.011719.003906-.019531.003906-.03125 0-.328125-.035156-.648438-.089844-.964844-.007812-.03125-.007812-.066406-.015625-.101562-.0625-.308594-.152343-.605469-.261719-.894532-.019531-.050781-.035156-.105468-.058593-.15625-.113281-.277343-.257813-.539062-.414063-.789062-.03125-.054688-.0625-.109375-.097656-.164062-.171875-.253907-.367188-.488282-.578125-.710938-.027344-.027344-.046875-.0625-.074219-.089844-.019531-.019531-.042968-.035156-.066406-.054687-.210938-.210938-.445312-.398438-.6875-.570313-.066406-.046875-.128906-.089844-.195312-.128906-.242188-.160156-.5-.296875-.765626-.414062-.058593-.027344-.113281-.046876-.171874-.070313-.292969-.117187-.597657-.214844-.917969-.277344-.019531-.003906-.042969-.007812-.0625-.011719-.339844-.066406-.6875-.101562-1.042969-.101562h-1c-1.480469 0-2.863281.574219-3.882812 1.609375-1.042969 1.03125-1.617188 2.410156-1.617188 3.890625 0 .679688.265625 1.3125.75 1.789062.480469.464844 1.109375.695313 1.785156.707032.066406.007812.125.023437.179688.050781.003906 0 .003906.003906.007812.003906.039063.023438.074219.054688.105469.085938.101563.109375.164063.261719.167969.414062 0 .007813.003906.011719.003906.019531 0 .789063-.644531 1.429688-1.433594 1.429688h-6.566406v-18.585938l.792969.792969c.609375.609375 1.40625.914063 2.207031.914063s1.597656-.304688 2.207031-.914063c.589844-.589843.914063-1.371093.914063-2.207031 0-.34375-.058594-.683594-.164063-1h15.042969zm-9-9.566406v1h-8c-.40625 0-.769531.242188-.921875.617188-.15625.375-.070313.804687.214844 1.089843l.5.5c.269531.269531.328125.582031.328125.792969s-.058594.523438-.328125.792969c-.425781.425781-1.160157.425781-1.585938 0l-1.5-1.5c-.1875-.1875-.441406-.292969-.707031-.292969h-1v-6h10c1.65625 0 3 1.34375 3 3zm-18-3h3v6h-3zm6 29h6.570312c.414063 0 .804688-.085938 1.175782-.222656.050781-.015625.105468-.027344.15625-.046875.019531-.007813.03125-.019531.050781-.027344 1.203125-.535156 2.046875-1.738281 2.046875-3.136719 0-.011718-.003906-.023437-.003906-.03125 0-.011718.003906-.023437.003906-.035156 0-.6875-.289062-1.316406-.75-1.769531-.015625-.015625-.027344-.035157-.039062-.046875-.039063-.039063-.082032-.0625-.121094-.097656-.050782-.042969-.101563-.085938-.15625-.125-.09375-.070313-.195313-.128907-.296875-.179688-.023438-.015625-.050781-.027344-.074219-.042969-.117188-.054687-.238281-.097656-.363281-.136719-.027344-.007812-.054688-.015624-.082031-.023437-.105469-.027344-.214844-.042969-.324219-.054687-.039063-.003907-.074219-.015626-.113281-.019532-.328126-.023437-.679688-.230468-.679688-.503906 0-.941406.363281-1.816406 1.03125-2.476562.652344-.660157 1.527344-1.023438 2.46875-1.023438h1c1.414062 0 2.625.84375 3.175781 2.050781.015625.035157.039063.0625.050781.097657.0625.144531.101563.296874.140626.453124.019531.070313.050781.140626.0625.214844.027343.132813.03125.269532.042968.40625.007813.097656.023438.191406.023438.289063-.003906.175781-.09375.292969-.148438.34375-.007812.011719-.023437.023437-.039062.035156-.019532.015625-.042969.027344-.066406.039063-.03125.019531-.074219.035156-.128907.046874-.011719.003907-.027343.007813-.039062.007813-.042969.007813-.089844.015625-.144531.015625-.953126 0-1.773438.589844-2.167969 1.4375-.023438.042969-.050781.082031-.066407.128906-.023437.058594-.039062.125-.058593.183594-.03125.101562-.066407.195312-.085938.300781-.015625.078125-.015625.15625-.023437.238281-.011719.089844-.027344.179688-.027344.277344v.003906c0 1.890626 1.539062 3.429688 3.429688 3.429688h5.570312v5.566406c0 .1875-.039062.371094-.105469.535156-.003906.007813-.003906.015626-.007812.023438-.007813.015625-.015625.027344-.023438.042969-.226562.476562-.714843.8125-1.316406.828125-.15625-.007813-.3125-.070313-.421875-.175782-.074219-.085937-.125-.195312-.125-.320312 0-.074219-.015625-.144531-.023438-.21875-.003906-.085938-.007812-.171875-.023437-.253906-.015625-.074219-.039063-.144532-.058594-.214844-.027343-.085938-.046875-.171875-.082031-.257812-.03125-.078126-.078125-.152344-.117188-.230469-.035156-.0625-.0625-.132813-.101562-.191407-.363281-.554687-.929688-.953124-1.589844-1.082031-.015625-.003906-.027344-.003906-.039062-.003906-.132813-.023437-.265625-.046875-.402344-.046875-.011719 0-.023438.003906-.035156.003906-.007813 0-.015625-.003906-.027344-.003906-.320312 0-.632812.035156-.9375.085938-.042969.007812-.085938.011718-.128906.019531-.304688.058593-.597656.148437-.878906.257812-.058594.019531-.113282.039063-.167969.0625-.273438.113281-.53125.25-.78125.40625-.058594.035157-.117188.066407-.171875.105469-.25.167969-.480469.359375-.699219.5625-.03125.03125-.070313.054688-.101563.082031-.023437.023438-.039062.050781-.058593.074219-.207031.210938-.390625.4375-.5625.675781-.046875.066407-.09375.136719-.136719.203125-.15625.242188-.292969.496094-.410156.761719-.027344.058594-.050782.117187-.074219.175781-.117187.292969-.210937.597656-.277344.914063-.003906.023437-.007812.046875-.011719.066406-.066406.339844-.101562.6875-.101562 1.046875v1c0 1.480469.574219 2.859375 1.609375 3.882812 1.027344 1.042969 2.410156 1.617188 3.890625 1.617188.679688 0 1.3125-.265625 1.789062-.753906.457032-.464844.699219-1.078125.703126-1.734375.003906-.015625.007812-.03125.007812-.050781.007812-.105469.054688-.195313.121094-.269532.105468-.109375.269531-.191406.449218-.191406.789063 0 1.429688.644531 1.429688 1.433594v6.566406h-21zm23 14.433594v-.003906c0-1.890626-1.539062-3.429688-3.429688-3.429688-.011718 0-.023437.003906-.035156.003906-.011718 0-.023437-.003906-.035156-.003906-.671875 0-1.285156.273438-1.738281.710938-.023438.027343-.046875.054687-.070313.082031-.078125.082031-.152344.164062-.21875.253906-.054687.074219-.097656.15625-.140625.234375-.03125.054688-.066406.105469-.09375.160156-.042969.089844-.074219.183594-.105469.28125-.019531.058594-.039062.113282-.054687.171875-.019531.085938-.03125.175781-.042969.265625-.007812.054688-.023437.105469-.027344.160156-.023437.328126-.234374.679688-.507812.679688-.941406 0-1.816406-.363281-2.476562-1.03125-.660157-.652344-1.023438-1.527344-1.023438-2.46875v-1c0-1.367188.796875-2.542969 1.945312-3.117188.074219-.039062.140626-.082031.21875-.113281.050782-.023437.109376-.035156.164063-.054687.371094-.128906.765625-.203125 1.183594-.210938.175781.003906.292969.089844.347656.148438.023437.023437.054687.066406.085937.121094 0 .003906.003907.007812.007813.011718.027344.058594.046875.136719.046875.226563-.015625.628906.226562 1.234375.683594 1.699219.011718.011718.027344.019531.039062.035156.089844.085937.1875.164062.292969.242187.023437.019531.046875.042969.074219.0625.398437.269531.882812.429688 1.410156.441407.023438 0 .042969.007812.066406.007812h.003906c1.890626 0 3.429688-1.539062 3.429688-3.429688v-5.570312h5.566406c.777344 0 1.40625.621094 1.429688 1.453125-.007813.183594-.09375.347656-.210938.445313-.082031.058593-.175781.101562-.285156.101562-.101562 0-.199219.019531-.300781.03125-.050781.003906-.105469.003906-.15625.015625-.113281.019531-.214844.054687-.320313.089844-.054687.015625-.109375.027343-.160156.046875-.097656.039062-.1875.09375-.277344.144531-.050781.027344-.105468.050781-.152344.082031-.554687.359375-.953124.925782-1.082031 1.585938-.003906.019531-.003906.039062-.007812.058594-.019531.125-.042969.253906-.042969.386718 0 .007813.003906.019532.003906.027344 0 .011719-.003906.019531-.003906.03125 0 .328125.035156.648438.089844.960938.003906.035156.007812.070312.015625.105468.0625.308594.152343.601563.261719.890625.019531.054688.035156.109375.058593.164063.113281.273437.253907.53125.410157.777344.035156.058593.066406.117187.105468.171874.167969.253907.363282.488282.570313.707032.03125.03125.046875.0625.078125.09375.019531.019531.042968.03125.0625.054687.214844.207031.449218.402344.695312.574219.0625.042969.121094.082031.183594.121094.246094.160156.507812.300781.777344.421875.054687.023437.109375.042969.164062.066406.296875.117187.601563.214844.921875.277344.019531.003906.039063.007812.058594.011719.339844.066406.6875.101562 1.046875.101562h1c1.480469 0 2.863281-.574219 3.882812-1.609375 1.042969-1.03125 1.617188-2.410156 1.617188-3.890625 0-.679688-.265625-1.3125-.75-1.789062-.480469-.46875-1.117188-.722657-1.789062-.710938-.113282-.007812-.210938-.058594-.289063-.136719-.101563-.109375-.164063-.261719-.167969-.414062 0-.007813-.003906-.011719-.003906-.019531 0-.789063.644531-1.429688 1.433594-1.429688h6.566406v18.585938l-.792969-.792969c-1.21875-1.21875-3.199219-1.21875-4.414062 0-.589844.589843-.914063 1.371093-.914063 2.207031 0 .34375.058594.683594.164063 1h-15.042969zm9 9.566406v-1h8c.40625 0 .769531-.242188.921875-.617188.15625-.375.070313-.804687-.214844-1.089843l-.5-.5c-.269531-.269531-.328125-.582031-.328125-.792969s.058594-.523438.328125-.792969c.425781-.425781 1.160157-.425781 1.585938 0l1.5 1.5c.1875.1875.441406.292969.707031.292969h1v6h-10c-1.65625 0-3-1.34375-3-3zm18 3h-3v-6h3zm0 0" data-original="#000000" class="active-path" data-old_color="#F7F2F2" fill="#FDFCFC"/></g> </svg>
