<svg height="512pt" viewBox="0 0 512 512.00122" width="512pt" xmlns="http://www.w3.org/2000/svg"><path d="m501.585938 168.527344-4.164063-12.757813c-1.648437-4.925781-6.261719-8.242187-11.457031-8.242187-5.191406 0-9.804688 3.316406-11.453125 8.242187l-3.125 9.632813-.953125 2.777344c-1.214844 3.558593-1.824219 5.378906-1.824219 5.378906h-60.746094s-.257812-.867188-.867187-2.6875l-5.03125-15.101563c-1.648438-4.925781-6.261719-8.242187-11.457032-8.242187-5.191406 0-9.804687 3.316406-11.453124 8.242187l-5.035157 15.101563c-.582031 1.761718-.875 3.609375-.867187 5.464844v318.308593c0 4.792969 3.886718 8.679688 8.679687 8.679688h17.355469c4.792969 0 8.675781-3.886719 8.675781-8.679688v-60.746093h60.746094v60.746093c0 4.792969 3.886719 8.679688 8.679687 8.679688h17.355469c4.792969 0 8.679688-3.886719 8.679688-8.679688v-315.441406c-.011719-3.628906-.597657-7.230469-1.738281-10.675781zm-32.976563 213.304687c-.027344 9.574219-7.78125 17.328125-17.355469 17.355469h-26.03125c-9.574218-.027344-17.328125-7.78125-17.359375-17.355469v-43.390625c.074219-9.289062 7.386719-16.90625 16.664063-17.355468h26.726562c9.574219.027343 17.328125 7.78125 17.355469 17.355468zm0-112.8125c.015625 7.980469-5.433594 14.9375-13.1875 16.832031h-.089844c-1.328125.351563-2.699219.527344-4.078125.523438h-26.03125c-9.574218-.03125-17.328125-7.785156-17.359375-17.355469v-43.390625c.03125-9.574218 7.785157-17.328125 17.359375-17.355468h26.03125c1.464844-.003907 2.921875.171874 4.339844.519531 3.070312.839843 5.855469 2.488281 8.070312 4.773437 3.160157 3.21875 4.933594 7.550782 4.945313 12.0625zm0 0" fill="#c03a2b"/><path d="m458.371094 371.503906c-11.195313.085938-24.125.433594-38.097656 1.390625-1.90625.171875-3.730469.257813-5.726563.433594-18.191406 1.355469-36.296875 3.703125-54.238281 7.027344-1.820313.261719-3.558594.609375-5.378906.957031-15.039063 2.890625-29.902344 6.628906-44.519532 11.191406-2.6875.78125-5.378906 1.652344-7.984375 2.519532-13.6875 4.585937-27.054687 10.097656-40.003906 16.488281-.867187.433593-1.734375.867187-2.601563 1.386719-11.960937 6.042968-23.394531 13.066406-34.191406 21l-69.425781 8.679687h-104.132813c33.207032-17.742187 68.089844-32.160156 104.132813-43.042969v-.347656s98.320313-38.53125 302.167969-27.683594zm0 0" fill="#35495e"/><g fill="#e64c3c"><path d="m225.628906 512h-156.203125c-4.792969 0-8.679687-3.882812-8.679687-8.675781v-60.746094c0-4.792969 3.886718-8.679687 8.679687-8.679687h86.230469l66.65625-8.328126c10.644531-7.652343 21.863281-14.476562 33.558594-20.402343.546875-.347657 1.621094-.867188 2.707031-1.433594 13.289063-6.5625 27.007813-12.21875 41.0625-16.929687 2.761719-.921876 5.554687-1.824219 8.351563-2.605469 14.867187-4.636719 29.984374-8.4375 45.28125-11.382813 2.480468-.476562 4.113281-.78125 5.8125-1.023437 18.121093-3.355469 36.40625-5.722657 54.785156-7.089844l5.597656-.425781c12.554688-.867188 25.164062-1.320313 38.839844-1.425782 3.109375 0 6.222656 0 9.085937.089844 22.261719.171875 36.207031 1.542969 36.796875 1.605469 4.421875.441406 7.796875 4.160156 7.808594 8.605469v52.070312c-.1875 4.875-4.214844 8.71875-9.09375 8.675782-3.714844 0-7.351562 0-10.898438.164062-13.054687.175781-25.894531.753906-38.53125 1.738281-2.605468.164063-4.929687.390625-7.324218.625-15.089844 1.292969-29.503906 3.125-43.390625 5.519531l-7.324219 1.160157c-15.273438 2.777343-30.589844 6.308593-45.246094 10.414062-1.175781.242188-2.332031.554688-3.472656.929688-16.25 4.582031-32.207031 10.15625-47.78125 16.6875-.925781.425781-2.195312.945312-3.355469 1.371093-13.097656 5.605469-25.820312 12.042969-38.097656 19.265626-9.1875 5.226562-17.898437 11.25-26.035156 17.996093-1.601563 1.433594-3.671875 2.230469-5.820313 2.230469zm-147.527344-17.355469h144.367188c8.289062-6.546875 17.03125-12.492187 26.164062-17.796875 13.070313-7.675781 26.613282-14.511718 40.550782-20.464844 1.226562-.457031 2.050781-.796874 2.796875-1.136718 16.175781-6.792969 32.753906-12.589844 49.636719-17.355469 1.46875-.492187 2.96875-.894531 4.488281-1.207031 14.542969-4.128906 30.371093-7.808594 46.496093-10.699219l3.402344-.546875c1.324219-.214844 2.671875-.433594 4.042969-.632812 14.171875-2.445313 29.042969-4.339844 43.960937-5.613282 3.054688-.289062 5.582032-.53125 8.246094-.703125 12.878906-.988281 26.121094-1.582031 39.25-1.738281 1.015625-.042969 2.066406-.078125 3.140625-.101562v-35.449219c-6.144531-.390625-15.621093-.867188-27.578125-.929688-2.890625-.085937-5.738281-.140625-8.679687-.085937-13.214844.101562-25.511719.546875-37.503907 1.363281l-5.570312.421875c-17.910156 1.347656-35.730469 3.667969-53.386719 6.945312-1.808593.257813-3.160156.527344-4.558593.796876-14.976563 2.855468-29.777344 6.5625-44.335938 11.097656-2.765625.800781-5.34375 1.640625-7.851562 2.476562-13.304688 4.460938-26.292969 9.8125-38.878907 16.019532-.675781.335937-1.328125.65625-1.976562 1.058593-11.707031 5.894531-22.910157 12.742188-33.488281 20.480469-1.203126.886719-2.613282 1.453125-4.097657 1.636719l-69.421875 8.679687c-.367187.058594-.742187.089844-1.113281.09375h-78.101563zm0 0"/><path d="m344.003906 454.898438c-2.996094.003906-5.78125-1.535157-7.367187-4.078126l-33.585938-53.714843c-2.539062-4.074219-1.296875-9.4375 2.777344-11.976563 4.074219-2.539062 9.4375-1.296875 11.976563 2.777344l33.585937 53.714844c1.667969 2.675781 1.757813 6.042968.234375 8.800781-1.527344 2.757813-4.425781 4.472656-7.578125 4.476563zm0 0"/><path d="m295.582031 471.820312c-.289062.019532-.578125.019532-.867187 0-2.300782-.21875-4.414063-1.34375-5.882813-3.125-1.464843-1.785156-2.160156-4.078124-1.929687-6.375l6.855468-68.121093c.3125-3.085938 2.242188-5.773438 5.070313-7.050781 2.828125-1.273438 6.121094-.941407 8.640625.871093 2.515625 1.808594 3.878906 4.828125 3.566406 7.914063l-6.855468 68.121094c-.464844 4.40625-4.171876 7.753906-8.597657 7.765624zm0 0"/><path d="m394.164062 443.183594c-2.996093.003906-5.78125-1.539063-7.371093-4.078125l-33.84375-54.148438c-1.640625-2.636719-1.753907-5.949219-.292969-8.6875 1.460938-2.742187 4.273438-4.496093 7.375-4.601562 3.105469-.105469 6.027344 1.453125 7.671875 4.089843l33.84375 54.148438c1.671875 2.675781 1.761719 6.046875.234375 8.804688-1.527344 2.757812-4.429688 4.472656-7.585938 4.472656zm0 0"/><path d="m347.820312 453.859375c-.320312 0-.640624-.019531-.960937-.0625-4.75-.527344-8.179687-4.792969-7.671875-9.542969l7.117188-63.871094c.53125-4.765624 4.824218-8.199218 9.59375-7.667968 4.765624.53125 8.199218 4.828125 7.664062 9.59375l-7.125 63.871094c-.503906 4.375-4.210938 7.675781-8.617188 7.679687zm0 0"/><path d="m444.753906 436.503906c-3.425781 0-6.535156-2.015625-7.929687-5.148437l-24.472657-54.929688c-1.367187-2.847656-1.078124-6.210937.753907-8.785156s4.914062-3.949219 8.054687-3.589844c3.136719.355469 5.832032 2.390625 7.039063 5.3125l24.46875 54.929688c1.195312 2.683593.953125 5.789062-.644531 8.253906-1.597657 2.460937-4.332032 3.953125-7.269532 3.957031zm0 0"/><path d="m401.277344 442.058594c-.632813 0-1.261719-.066406-1.882813-.203125-2.246093-.496094-4.203125-1.867188-5.441406-3.808594s-1.652344-4.296875-1.152344-6.542969l13.269531-60.050781c.667969-3.027344 2.902344-5.46875 5.859376-6.402344 2.957031-.933593 6.1875-.21875 8.472656 1.875 2.289062 2.09375 3.285156 5.25 2.613281 8.277344l-13.265625 60.050781c-.878906 3.972656-4.402344 6.800782-8.472656 6.804688zm0 0"/><path d="m491.617188 434.082031c-3.40625 0-6.5-1.992187-7.90625-5.09375l-24.472657-53.804687c-1.855469-4.335938.089844-9.359375 4.382813-11.3125 4.292968-1.953125 9.363281-.121094 11.410156 4.128906l24.480469 53.800781c1.226562 2.6875 1.003906 5.8125-.59375 8.296875-1.597657 2.484375-4.347657 3.984375-7.300781 3.984375zm0 0"/><path d="m452.824219 435.808594c-.289063.015625-.578125.015625-.867188 0-4.765625-.480469-8.242187-4.726563-7.765625-9.492188l5.554688-55.636718c.476562-4.769532 4.730468-8.246094 9.5-7.765626 4.769531.480469 8.246094 4.734376 7.769531 9.503907l-5.554687 55.625c-.46875 4.417969-4.195313 7.769531-8.636719 7.765625zm0 0"/><path d="m253.058594 492.996094c-.25 0-.503906 0-.773438 0-4.769531-.421875-8.292968-4.628906-7.878906-9.398438 1.996094-22.683594 5.476562-58.496094 6.777344-71.53125.3125-3.085937 2.242187-5.773437 5.070312-7.046875 2.828125-1.277343 6.121094-.945312 8.640625.867188s3.878907 4.828125 3.566407 7.914062c-1.308594 13.015625-4.773438 48.703125-6.769532 71.308594-.40625 4.464844-4.148437 7.882813-8.632812 7.886719zm0 0"/><path d="m292.628906 473.039062c-3.109375.007813-5.984375-1.648437-7.539062-4.339843l-30.199219-52.851563c-2.242187-4.144531-.765625-9.320312 3.328125-11.660156 4.089844-2.335938 9.300781-.980469 11.734375 3.054688l30.199219 52.847656c1.550781 2.6875 1.550781 5.996094 0 8.679687-1.550782 2.6875-4.421875 4.339844-7.523438 4.335938zm0 0"/><path d="m477.203125 174.515625-.261719 2.34375c-2.34375 21-4.164062 37.226563-8.332031 57.792969-2.253906 10.675781-5.117187 22.5625-9.023437 36.882812 0 .171875-1.648438 5.988282-4.164063 14.316406h-.089844c-3.035156 9.894532-7.375 23.433594-12.0625 35.234376-2.796875 7.933593-6.523437 15.507812-11.105469 22.5625-.695312.953124-1.476562 2.167968-2.515624 3.730468-5.804688 9.546875-13.167969 18.054688-21.785157 25.167969-9.933593 8.117187-21.972656 13.234375-34.710937 14.753906-3.503906.53125-7.042969.789063-10.585938.777344-22.222656-.925781-43.878906-7.273437-63.089844-18.480469-40.265624-21.261718-82.441406-105.613281-99.449218-158.636718-1.097656-2.980469-.476563-6.324219 1.617187-8.714844s5.324219-3.445313 8.425781-2.75c3.101563.695312 5.574219 3.03125 6.445313 6.085937 16.316406 50.851563 57.015625 130.691407 91.117187 148.742188 28.550782 15.011719 49.726563 18.136719 65.519532 15.359375 13.859375-2.511719 26.257812-10.167969 34.710937-21.4375 2.625-3.300782 5.058594-6.75 7.292969-10.324219 1.214844-1.910156 2.253906-3.472656 3.121094-4.6875 2.515625-3.8125 4.613281-7.886719 6.25-12.148437h.085937c4.164063-9.980469 8.851563-23.429688 12.410157-34.710938 2.777343-8.59375 4.859374-15.882812 5.8125-19.441406 5.457031-19.09375 9.71875-38.511719 12.757812-58.140625 1.5625-10.671875 2.777344-21.261719 4.164062-33.84375l.175782-1.390625h8.675781s.609375-1.820313 1.824219-5.378906l.953125-2.777344c3.871093 1.253906 6.308593 5.074218 5.816406 9.113281zm0 0"/><path d="m225.628906 381.832031c-4.792968 0-8.679687-3.886719-8.679687-8.679687 0-4.792969 3.886719-8.675782 8.679687-8.675782 32.835938 0 63.851563 0 91.8125-18.503906 29.203125-21.027344 48.699219-52.933594 54.089844-88.511718 3.125-18.035157 5.085938-36.710938 6.941406-54.785157 1.066406-10.085937 2.125-20.160156 3.382813-30.191406.695312-4.660156 4.984375-7.914063 9.660156-7.332031 4.675781.585937 8.03125 4.796875 7.558594 9.484375-1.230469 9.925781-2.28125 19.890625-3.339844 29.851562-1.925781 18.355469-3.933594 37.316407-7.144531 55.929688-6.226563 40.28125-28.441406 76.34375-61.613282 100.03125-32.273437 21.382812-67.390624 21.382812-101.347656 21.382812zm0 0"/><path d="m112.46875 199.59375c-3.703125 0-6.996094-2.347656-8.203125-5.847656l-5.285156-15.359375c-8.753907-25.503907-17.796875-51.871094-27.855469-78.101563-1.136719-2.902344-.636719-6.191406 1.320312-8.617187 1.953126-2.425781 5.058594-3.617188 8.136719-3.125 3.074219.496093 5.648438 2.601562 6.746094 5.519531 10.167969 26.5 19.273437 53.023438 28.070313 78.664062l5.269531 15.335938c.925781 2.652344.507812 5.59375-1.121094 7.882812-1.628906 2.292969-4.269531 3.652344-7.078125 3.648438zm0 0"/></g><path d="m218.015625 18.425781-13.328125-13.332031c-3.257812-3.261719-7.683594-5.09765625-12.296875-5.09375h-2.949219c-4.613281-.00390625-9.039062 1.832031-12.296875 5.09375l-13.304687 13.304688c-1.203125 1.378906-2.136719 2.972656-2.757813 4.695312-5.007812 12.261719-16.929687 20.28125-30.175781 20.296875h-34.113281c-14.035157-.3125-26.40625-9.304687-31.03125-22.5625-.179688-.484375-.40625-.949219-.675781-1.386719l-15.273438-13.625c-8.574219-7.753906-21.625-7.753906-30.199219 0l-15.273437 13.625c-2.796875 4.316406-4.3046878 9.34375-4.339844 14.492188v469.390625c0 4.792969 3.886719 8.675781 8.679688 8.675781h60.746093v-112.8125c0-9.585938 7.769531-17.355469 17.355469-17.355469h52.066406c9.585938 0 17.355469 7.769531 17.355469 17.355469v112.8125h69.425781v-475.203125c0-6.890625-2.738281-13.5-7.613281-18.371094zm-79.167969 311.339844h-52.066406c-9.585938 0-17.355469-7.773437-17.355469-17.359375v-52.066406c0-9.585938 7.769531-17.355469 17.355469-17.355469h52.066406c9.585938 0 17.355469 7.769531 17.355469 17.355469v52.066406c0 9.585938-7.769531 17.359375-17.355469 17.359375zm0-138.847656h-52.066406c-9.585938 0-17.355469-7.773438-17.355469-17.359375v-60.742188c0-9.585937 7.769531-17.359375 17.355469-17.359375h52.066406c9.585938 0 17.355469 7.773438 17.355469 17.359375v60.742188c0 9.585937-7.769531 17.359375-17.355469 17.359375zm0 0" fill="#c03a2b"/></svg>